<?xml version="1.0" standalone="no"?>
<!DOCTYPE svg PUBLIC "-//W3C//DTD SVG 20010904//EN"
 "http://www.w3.org/TR/2001/REC-SVG-20010904/DTD/svg10.dtd">
<svg version="1.0" xmlns="http://www.w3.org/2000/svg"
 width="2826.000000pt" height="367.000000pt" viewBox="0 0 2826.000000 367.000000"
 preserveAspectRatio="xMidYMid meet">
<metadata>
Created by potrace 1.15, written by Peter Selinger 2001-2017
</metadata>
<g transform="translate(0.000000,367.000000) scale(0.100000,-0.100000)"
fill="#000000" stroke="none">
<path d="M309 3586 c-102 -36 -188 -124 -219 -223 -19 -63 -20 -92 -20 -767
l0 -701 148 -148 147 -147 1363 0 1362 0 0 -510 0 -510 -830 0 c-456 0 -830
-3 -830 -8 0 -4 115 -119 254 -255 l255 -248 698 3 698 3 57 27 c73 34 142
103 176 176 l27 57 3 735 3 735 -154 153 -153 152 -1357 0 -1357 0 0 490 0
490 845 0 c469 0 845 4 845 9 0 4 -114 119 -254 255 l-254 246 -708 0 c-554
-1 -717 -4 -745 -14z"/>
<path d="M19619 3586 c-102 -27 -181 -95 -228 -196 l-26 -55 0 -1510 0 -1510
22 -47 c30 -66 105 -143 172 -175 l56 -28 1304 -3 1304 -2 -6 106 c-4 59 -7
174 -7 256 l0 148 -1170 0 -1170 0 0 1260 0 1260 1155 0 1155 0 0 133 c0 74
-3 189 -7 255 l-6 122 -1251 -1 c-958 0 -1262 -3 -1297 -13z"/>
<path d="M22610 3319 l285 -282 3 119 c4 145 -14 224 -66 292 -48 63 -67 78
-142 115 -63 31 -70 32 -215 35 l-150 3 285 -282z"/>
<path d="M14430 1685 l0 -1605 880 0 880 0 0 150 0 150 -715 0 -715 0 0 585 0
585 415 0 415 0 0 150 0 150 -415 0 -415 0 0 570 0 570 715 0 715 0 0 150 0
150 -880 0 -880 0 0 -1605z"/>
<path d="M16490 1680 l0 -1610 830 0 830 0 0 150 0 150 -665 0 -665 0 0 1460
0 1460 -165 0 -165 0 0 -1610z"/>
<path d="M26470 1685 l0 -1605 880 0 880 0 0 145 0 145 -715 0 -715 0 0 590 0
590 420 0 420 0 0 150 0 150 -420 0 -420 0 0 570 0 570 715 0 715 0 0 150 0
150 -880 0 -880 0 0 -1605z"/>
<path d="M3950 1675 l0 -1605 165 0 165 0 0 540 0 540 602 -2 602 -3 374 -537
374 -538 200 0 c110 0 198 4 196 8 -1 5 -505 727 -1117 1605 l-1115 1597 -223
0 -223 0 0 -1605z m838 483 c265 -389 482 -710 482 -713 0 -3 -223 -5 -495 -5
l-495 0 0 732 c0 616 2 729 13 713 8 -11 231 -338 495 -727z"/>
<path d="M6830 1680 l0 -1600 165 0 165 0 0 1380 0 1380 23 -1 c18 0 111 -130
507 -712 718 -1053 1063 -1554 1249 -1816 l166 -234 3 1382 2 1381 23 0 c18
-1 108 -128 499 -703 263 -386 689 -1006 946 -1377 l469 -675 202 -3 c171 -2
201 0 194 12 -4 7 -505 727 -1113 1599 l-1105 1586 -222 1 -223 0 -2 -1081 -3
-1080 -750 1080 -750 1081 -222 0 -223 0 0 -1600z"/>
<path d="M11663 2203 c3 -936 6 -1092 20 -1186 23 -154 51 -247 107 -363 162
-333 443 -531 815 -574 54 -6 386 -10 823 -10 l732 0 0 1605 0 1605 -150 0
-150 0 0 -1455 0 -1455 -605 0 c-684 0 -697 1 -845 72 -153 73 -306 252 -365
426 -48 142 -49 151 -52 1315 l-4 1097 -165 0 -165 0 4 -1077z"/>
<path d="M24415 3273 c-292 -35 -530 -121 -762 -274 -145 -97 -343 -294 -436
-434 -361 -547 -367 -1226 -14 -1755 269 -404 709 -675 1187 -731 136 -15 383
-6 512 20 326 66 604 216 844 455 240 240 385 507 451 831 27 136 25 473 -5
608 -30 137 -65 235 -127 362 -248 508 -734 850 -1300 915 -85 9 -284 11 -350
3z m375 -298 c521 -85 945 -484 1077 -1012 24 -96 27 -128 28 -278 0 -240 -34
-393 -134 -589 -188 -368 -523 -624 -933 -712 -116 -25 -380 -26 -498 -1 -546
116 -976 558 -1056 1087 -105 702 381 1378 1081 1504 108 19 318 20 435 1z"/>
<path d="M22755 488 c-77 -79 -203 -207 -280 -286 l-140 -143 155 3 c147 3
158 5 210 32 74 38 144 113 171 184 17 44 23 85 27 182 7 194 18 192 -143 28z"/>
</g>
</svg>
