<svg xmlns="http://www.w3.org/2000/svg" xmlns:xlink="http://www.w3.org/1999/xlink" xmlns:sketch="http://www.bohemiancoding.com/sketch/ns" width="512px" height="512px" viewBox="0 0 512 512" version="1.1">
    <title>512</title>
    <defs>
        <radialGradient cx="50%" cy="48.0608259%" fx="50%" fy="48.0608259%" r="54.804337%" id="radialGradient-1">
            <stop stop-color="#FFFFFF" offset="0%"/>
            <stop stop-color="#FFFFFF" offset="48.3628727%"/>
            <stop stop-color="#F2F2F2" offset="100%"/>
        </radialGradient>
        <circle id="path-2" cx="256" cy="256" r="224"/>
        <linearGradient x1="50%" y1="-10.1743521%" x2="50%" y2="98.5470655%" id="linearGradient-3">
            <stop stop-color="#259A73" offset="0%"/>
            <stop stop-color="#1F8764" offset="100%"/>
        </linearGradient>
        <filter x="-50%" y="-50%" width="200%" height="200%" filterUnits="objectBoundingBox" id="filter-4">
            <feOffset dx="9" dy="8" in="SourceAlpha" result="shadowOffsetOuter1"/>
            <feGaussianBlur stdDeviation="0" in="shadowOffsetOuter1" result="shadowBlurOuter1"/>
            <feColorMatrix values="0 0 0 0 0   0 0 0 0 0   0 0 0 0 0  0 0 0 0.7 0" in="shadowBlurOuter1" type="matrix" result="shadowMatrixOuter1"/>
            <feOffset dx="4" dy="3" in="SourceAlpha" result="shadowOffsetOuter2"/>
            <feGaussianBlur stdDeviation="0" in="shadowOffsetOuter2" result="shadowBlurOuter2"/>
            <feColorMatrix values="0 0 0 0 0.97254902   0 0 0 0 0.97254902   0 0 0 0 0.97254902  0 0 0 0.7 0" in="shadowBlurOuter2" type="matrix" result="shadowMatrixOuter2"/>
            <feMerge>
                <feMergeNode in="shadowMatrixOuter1"/>
                <feMergeNode in="shadowMatrixOuter2"/>
                <feMergeNode in="SourceGraphic"/>
            </feMerge>
        </filter>
    </defs>
    <g id="Page-1" stroke="none" stroke-width="1" fill="none" fill-rule="evenodd" sketch:type="MSPage">
        <g id="512" sketch:type="MSArtboardGroup">
            <g id="Oval-1">
                <use stroke="#23936D" stroke-width="10" fill="url(#radialGradient-1)" fill-rule="evenodd" sketch:type="MSShapeGroup" xlink:href="#path-2"/>
                <use stroke="none" fill="none" xlink:href="#path-2"/>
            </g>
            <path d="M152.035783,138.856866 C152.035783,125.980177 141.69816,115.642553 128.82147,115.642553 C115.944781,115.642553 105.607157,125.980177 105.607157,138.856866 C105.607157,147.19951 110.141202,154.635345 117.214313,158.806667 L117.214313,388.410735 C117.214313,391.493886 119.934741,394.214313 123.017892,394.214313 L134.625048,394.214313 C137.708199,394.214313 140.428627,391.493886 140.428627,388.410735 L140.428627,158.806667 C147.501738,154.635345 152.035783,147.19951 152.035783,138.856866 Z M419.000387,150.464023 C419.000387,144.116359 413.740895,138.856866 407.393231,138.856866 C399.413311,138.856866 368.763162,163.522074 340.289356,163.522074 C334.66714,163.522074 329.407647,162.615265 324.329516,160.076199 C299.120222,148.287681 276.812718,138.856866 248.338912,138.856866 C222.585533,138.856866 194.837174,149.013128 171.985584,160.620285 C167.270177,162.977989 162.010684,165.517054 157.658,168.418843 C154.212125,170.957909 152.035783,174.04106 152.035783,178.393744 L152.035783,312.964217 C152.035783,319.31188 157.295276,324.571373 163.64294,324.571373 C165.819282,324.571373 167.6329,324.027288 169.62788,322.939117 C194.655812,309.518342 224.943236,296.460291 253.779766,296.460291 C293.316644,296.460291 309.276484,321.850946 342.64706,321.850946 C366.405459,321.850946 389.075687,311.876046 409.569573,300.812974 C414.829065,298.092547 419.000387,295.553481 419.000387,288.843094 L419.000387,150.464023 Z" id="" fill="url(#linearGradient-3)" filter="url(#filter-4)" sketch:type="MSShapeGroup"/>
        </g>
    </g>
</svg>