<?xml version="1.0" standalone="no"?>
<!DOCTYPE svg PUBLIC "-//W3C//DTD SVG 20010904//EN"
 "http://www.w3.org/TR/2001/REC-SVG-20010904/DTD/svg10.dtd">
<svg version="1.0" xmlns="http://www.w3.org/2000/svg"
 width="588.000000pt" height="588.000000pt" viewBox="0 0 588.000000 588.000000"
 preserveAspectRatio="xMidYMid meet">
<metadata>
Created by potrace 1.11, written by Peter Selinger 2001-2013
</metadata>
<g transform="translate(0.000000,588.000000) scale(0.100000,-0.100000)"
fill="#000000" stroke="none">
<path d="M333 5818 c-100 -17 -201 -96 -250 -196 l-28 -57 0 -2625 0 -2625 26
-56 c37 -79 90 -133 167 -171 l67 -33 2180 -3 2180 -2 0 250 0 250 -2062 0
-2063 0 0 2388 0 2388 2053 -1 c1128 -1 2057 1 2062 2 7 2 10 89 9 246 -1 133
-2 244 -3 247 -2 8 -4291 6 -4338 -2z"/>
<path d="M4936 5822 c-4 -4 878 -892 885 -892 3 0 4 141 4 313 -2 311 -2 312
-27 367 -46 100 -141 182 -238 206 -26 7 -618 12 -624 6z"/>
<path d="M1489 4698 c-152 -15 -281 -133 -307 -281 -4 -23 -8 -349 -7 -724 l0
-682 153 -153 153 -154 1332 1 c733 1 1339 -2 1347 -6 13 -6 15 -71 15 -507 0
-275 -3 -504 -7 -508 -4 -3 -379 -7 -833 -7 l-826 0 250 -250 249 -250 669 1
c367 0 688 3 712 7 134 20 254 141 278 281 5 27 9 360 8 740 l0 691 -155 154
-154 154 -1345 0 -1346 0 0 498 c0 325 3 497 10 498 5 0 385 1 843 1 457 1
832 3 832 5 0 2 -111 115 -246 250 l-245 246 -657 1 c-361 1 -687 -2 -723 -6z"/>
<path d="M5380 505 c-245 -246 -447 -448 -450 -451 -2 -3 139 -4 315 -2 l320
3 56 27 c89 44 159 122 189 213 10 30 14 120 15 348 0 169 0 307 0 307 0 0
-201 -200 -445 -445z"/>
</g>
</svg>
