<?xml version="1.0" standalone="no"?>
<!DOCTYPE svg PUBLIC "-//W3C//DTD SVG 20010904//EN"
 "http://www.w3.org/TR/2001/REC-SVG-20010904/DTD/svg10.dtd">
<svg version="1.0" xmlns="http://www.w3.org/2000/svg"
 width="588.000000pt" height="588.000000pt" viewBox="0 0 588.000000 588.000000"
 preserveAspectRatio="xMidYMid meet">
<metadata>
Created by potrace 1.15, written by Peter Selinger 2001-2017
</metadata>
<g transform="translate(0.000000,588.000000) scale(0.100000,-0.100000)"
fill="#000000" stroke="none">
<path d="M315 5820 c-94 -23 -187 -97 -233 -185 l-27 -50 0 -2645 0 -2645 25
-50 c31 -64 101 -134 165 -165 l50 -25 2193 -3 2192 -2 0 250 0 250 -2065 0
-2065 0 0 2385 0 2385 2065 0 2065 0 0 255 0 255 -2167 -1 c-1193 -1 -2181 -4
-2198 -9z"/>
<path d="M5366 5376 c247 -251 453 -456 457 -456 4 0 7 145 5 323 l-3 322 -26
56 c-37 79 -90 133 -167 171 l-67 33 -324 3 -324 3 449 -455z"/>
<path d="M1430 4694 c-102 -27 -186 -100 -233 -202 -22 -47 -22 -51 -25 -767
l-3 -719 153 -153 153 -153 1347 0 1348 0 0 -510 0 -510 -830 0 c-456 0 -830
-3 -830 -8 0 -4 111 -118 248 -255 l247 -247 675 0 c753 0 750 0 847 67 64 43
127 134 142 203 7 34 11 286 11 753 l0 702 -158 158 -157 157 -1343 0 -1342 0
0 495 0 495 847 0 848 0 -255 255 -255 255 -690 -1 c-572 0 -699 -3 -745 -15z"/>
<path d="M5370 505 l-455 -456 335 3 335 3 50 27 c62 32 139 112 168 175 20
45 22 65 25 318 2 149 2 296 0 328 l-3 57 -455 -455z"/>
</g>
</svg>
